<svg width="71" height="71" viewBox="0 0 71 71" fill="none" xmlns="http://www.w3.org/2000/svg">
<rect width="71" height="71" fill="white"/>
<path d="M60.7915 40.2116C60.9435 40.3636 61.1497 40.449 61.3647 40.449C61.5797 40.449 61.7859 40.3636 61.938 40.2116C62.09 40.0595 62.1754 39.8533 62.1754 39.6383V37.379C62.1754 37.164 62.09 36.9578 61.938 36.8057C61.7859 36.6537 61.5797 36.5683 61.3647 36.5683C61.1497 36.5683 60.9435 36.6537 60.7915 36.8057C60.6394 36.9578 60.554 37.164 60.554 37.379V39.6383C60.554 39.8533 60.6394 40.0595 60.7915 40.2116Z" fill="#CB8734" stroke="#CB8734" stroke-width="0.1"/>
<path d="M11.9179 62.175H59.0821C59.9024 62.175 60.6891 61.8491 61.2691 61.2691C61.8491 60.6891 62.175 59.9024 62.175 59.0821V44.9633C62.175 44.7483 62.0896 44.5421 61.9375 44.39C61.7855 44.238 61.5793 44.1526 61.3643 44.1526C61.1493 44.1526 60.9431 44.238 60.791 44.39C60.639 44.5421 60.5536 44.7483 60.5536 44.9633V59.0821C60.5536 59.4724 60.3985 59.8467 60.1226 60.1226C59.8467 60.3985 59.4724 60.5536 59.0821 60.5536H11.9179C11.5276 60.5536 11.1533 60.3985 10.8774 60.1226C10.6015 59.8467 10.4464 59.4724 10.4464 59.0821V11.9179C10.4464 11.5276 10.6015 11.1533 10.8774 10.8774C11.1533 10.6015 11.5276 10.4464 11.9179 10.4464H59.0821C59.4724 10.4464 59.8467 10.6015 60.1226 10.8774C60.3985 11.1533 60.5536 11.5276 60.5536 11.9179V24.5153C60.5536 24.7303 60.639 24.9365 60.791 25.0885C60.9431 25.2406 61.1493 25.326 61.3643 25.326C61.5793 25.326 61.7855 25.2406 61.9375 25.0885C62.0896 24.9365 62.175 24.7303 62.175 24.5153V11.9179C62.175 11.0976 61.8491 10.3109 61.2691 9.73088C60.6891 9.15085 59.9024 8.825 59.0821 8.825H11.9179C11.0976 8.825 10.3109 9.15085 9.73088 9.73088C9.15085 10.3109 8.825 11.0976 8.825 11.9179V59.0821C8.825 59.9024 9.15085 60.6891 9.73088 61.2691C10.3109 61.8491 11.0976 62.175 11.9179 62.175Z" fill="#CB8734" stroke="#CB8734" stroke-width="0.1"/>
<path d="M60.7915 32.6274C60.9435 32.7794 61.1497 32.8648 61.3647 32.8648C61.5797 32.8648 61.7859 32.7794 61.938 32.6274C62.09 32.4753 62.1754 32.2691 62.1754 32.0541V29.8404C62.1754 29.6254 62.09 29.4192 61.938 29.2672C61.7859 29.1151 61.5797 29.0297 61.3647 29.0297C61.1497 29.0297 60.9435 29.1151 60.7915 29.2672C60.6394 29.4192 60.554 29.6254 60.554 29.8404V32.0541C60.554 32.2691 60.6394 32.4753 60.7915 32.6274Z" fill="#CB8734" stroke="#CB8734" stroke-width="0.1"/>
<path d="M38.2743 31.5797L38.2743 31.5797C38.1609 31.6931 38.0838 31.8375 38.0525 31.9948C38.0212 32.152 38.0373 32.315 38.0986 32.4631C38.16 32.6112 38.2638 32.7378 38.3971 32.8269C38.5304 32.916 38.6871 32.9636 38.8475 32.9636H38.8475C39.0625 32.9635 39.2686 32.8781 39.4206 32.7261C39.4206 32.7261 39.4206 32.7261 39.4206 32.7261L52.8092 19.3375L52.8098 19.3369C52.9575 19.184 53.0392 18.9792 53.0374 18.7666C53.0355 18.554 52.9503 18.3507 52.8 18.2004C52.6496 18.0501 52.4463 17.9648 52.2337 17.963C52.0212 17.9611 51.8164 18.0428 51.6635 18.1905L51.6635 18.1905L51.6629 18.1911L38.2743 31.5797Z" fill="#CB8734" stroke="#CB8734" stroke-width="0.1"/>
<path d="M51.6617 26.3839C51.8137 26.5359 52.0199 26.6213 52.2349 26.6213C52.45 26.6213 52.6562 26.5359 52.8082 26.3839C52.9602 26.2319 53.0457 26.0256 53.0457 25.8106V18.7641C53.0457 18.5491 52.9602 18.3429 52.8082 18.1909C52.6562 18.0388 52.45 17.9534 52.2349 17.9534H45.1884C44.9734 17.9534 44.7672 18.0388 44.6152 18.1909C44.4631 18.3429 44.3777 18.5491 44.3777 18.7641C44.3777 18.9791 44.4631 19.1854 44.6152 19.3374C44.7672 19.4894 44.9734 19.5748 45.1884 19.5748H51.4242V25.8106C51.4242 26.0256 51.5096 26.2319 51.6617 26.3839Z" fill="#CB8734" stroke="#CB8734" stroke-width="0.1"/>
<path d="M18.1913 51.6626L18.1913 51.6626C18.0779 51.776 18.0007 51.9204 17.9695 52.0776C17.9382 52.2349 17.9543 52.3979 18.0156 52.546C18.077 52.6941 18.1808 52.8207 18.3141 52.9098C18.4474 52.9989 18.6041 53.0464 18.7644 53.0465H18.7645C18.9795 53.0464 19.1856 52.961 19.3376 52.8089C19.3376 52.8089 19.3376 52.8089 19.3376 52.8089L32.7262 39.4204L32.7268 39.4198C32.8745 39.2668 32.9562 39.0621 32.9544 38.8495C32.9525 38.6369 32.8673 38.4336 32.7169 38.2833C32.5666 38.133 32.3633 38.0477 32.1507 38.0459C31.9382 38.044 31.7334 38.1257 31.5805 38.2734L31.5805 38.2734L31.5798 38.274L18.1913 51.6626Z" fill="#CB8734" stroke="#CB8734" stroke-width="0.1"/>
<path d="M18.7646 53.0466H25.8111C26.0261 53.0466 26.2323 52.9612 26.3844 52.8092C26.5364 52.6571 26.6218 52.4509 26.6218 52.2359C26.6218 52.0209 26.5364 51.8147 26.3844 51.6627C26.2323 51.5106 26.0261 51.4252 25.8111 51.4252H19.5753V45.1894C19.5753 45.083 19.5544 44.9775 19.5136 44.8792C19.4729 44.7808 19.4132 44.6914 19.3379 44.6162C19.2626 44.5409 19.1732 44.4812 19.0749 44.4404C18.9765 44.3997 18.8711 44.3787 18.7646 44.3787C18.6582 44.3787 18.5527 44.3997 18.4544 44.4404C18.356 44.4812 18.2666 44.5409 18.1914 44.6162C18.1161 44.6914 18.0564 44.7808 18.0156 44.8792C17.9749 44.9775 17.9539 45.083 17.9539 45.1894V52.2359C17.9539 52.4509 18.0393 52.6571 18.1914 52.8092C18.3434 52.9612 18.5496 53.0466 18.7646 53.0466Z" fill="#CB8734" stroke="#CB8734" stroke-width="0.1"/>
</svg>
