<svg width="71" height="71" viewBox="0 0 71 71" fill="none" xmlns="http://www.w3.org/2000/svg">
<rect width="71" height="71" fill="white"/>
<path d="M61.9165 40.2116C62.0685 40.3636 62.2747 40.449 62.4897 40.449C62.7047 40.449 62.9109 40.3636 63.063 40.2116C63.215 40.0595 63.3004 39.8533 63.3004 39.6383V37.379C63.3004 37.164 63.215 36.9578 63.063 36.8057C62.9109 36.6537 62.7047 36.5683 62.4897 36.5683C62.2747 36.5683 62.0685 36.6537 61.9165 36.8057C61.7644 36.9578 61.679 37.164 61.679 37.379V39.6383C61.679 39.8533 61.7644 40.0595 61.9165 40.2116Z" fill="#CB8734" stroke="#CB8734" stroke-width="0.1"/>
<path d="M13.0429 62.175H60.2071C61.0274 62.175 61.8141 61.8491 62.3941 61.2691C62.9741 60.6891 63.3 59.9024 63.3 59.0821V44.9633C63.3 44.7483 63.2146 44.5421 63.0625 44.39C62.9105 44.238 62.7043 44.1526 62.4893 44.1526C62.2743 44.1526 62.0681 44.238 61.916 44.39C61.764 44.5421 61.6786 44.7483 61.6786 44.9633V59.0821C61.6786 59.4724 61.5235 59.8467 61.2476 60.1226C60.9717 60.3985 60.5974 60.5536 60.2071 60.5536H13.0429C12.6526 60.5536 12.2783 60.3985 12.0024 60.1226C11.7265 59.8467 11.5714 59.4724 11.5714 59.0821V11.9179C11.5714 11.5276 11.7265 11.1533 12.0024 10.8774C12.2783 10.6015 12.6526 10.4464 13.0429 10.4464H60.2071C60.5974 10.4464 60.9717 10.6015 61.2476 10.8774C61.5235 11.1533 61.6786 11.5276 61.6786 11.9179V24.5153C61.6786 24.7303 61.764 24.9365 61.916 25.0885C62.0681 25.2406 62.2743 25.326 62.4893 25.326C62.7043 25.326 62.9105 25.2406 63.0625 25.0885C63.2146 24.9365 63.3 24.7303 63.3 24.5153V11.9179C63.3 11.0976 62.9741 10.3109 62.3941 9.73088C61.8141 9.15085 61.0274 8.825 60.2071 8.825H13.0429C12.2226 8.825 11.4359 9.15085 10.8559 9.73088C10.2759 10.3109 9.95 11.0976 9.95 11.9179V59.0821C9.95 59.9024 10.2759 60.6891 10.8559 61.2691C11.4359 61.8491 12.2226 62.175 13.0429 62.175Z" fill="#CB8734" stroke="#CB8734" stroke-width="0.1"/>
<path d="M61.9165 32.6274C62.0685 32.7794 62.2747 32.8648 62.4897 32.8648C62.7047 32.8648 62.9109 32.7794 63.063 32.6274C63.215 32.4753 63.3004 32.2691 63.3004 32.0541V29.8404C63.3004 29.6254 63.215 29.4192 63.063 29.2672C62.9109 29.1151 62.7047 29.0297 62.4897 29.0297C62.2747 29.0297 62.0685 29.1151 61.9165 29.2672C61.7644 29.4192 61.679 29.6254 61.679 29.8404V32.0541C61.679 32.2691 61.7644 32.4753 61.9165 32.6274Z" fill="#CB8734" stroke="#CB8734" stroke-width="0.1"/>
<mask id="path-5-outside-1_162_2882" maskUnits="userSpaceOnUse" x="37.429" y="16.2719" width="24.0416" height="24.0416" fill="black">
<rect fill="white" x="37.429" y="16.2719" width="24.0416" height="24.0416"/>
<path fill-rule="evenodd" clip-rule="evenodd" d="M54.3688 24.5689C54.5706 24.5689 54.7641 24.4888 54.9067 24.3461C55.0494 24.2035 55.1295 24.01 55.1295 23.8082C55.1295 23.6065 55.0494 23.413 54.9067 23.2703L49.9241 18.2877C49.7814 18.145 49.5879 18.0649 49.3862 18.0649C49.1844 18.0649 48.9909 18.145 48.8483 18.2877L43.8657 23.2703C43.723 23.413 43.6429 23.6065 43.6429 23.8082C43.6429 24.01 43.723 24.2035 43.8657 24.3461C44.0083 24.4888 44.2018 24.5689 44.4036 24.5689C44.6053 24.5689 44.7988 24.4888 44.9415 24.3461L48.6258 20.6618L48.6258 37.7603C48.6258 37.9107 48.6705 38.0578 48.754 38.1828C48.8376 38.3079 48.9564 38.4054 49.0954 38.463C49.2344 38.5205 49.3873 38.5356 49.5348 38.5063C49.6824 38.477 49.8179 38.4045 49.9243 38.2982C50.0669 38.1555 50.147 37.962 50.147 37.7603L50.147 20.6622L53.8309 24.3461C53.9736 24.4888 54.1671 24.5689 54.3688 24.5689Z"/>
</mask>
<path fill-rule="evenodd" clip-rule="evenodd" d="M54.3688 24.5689C54.5706 24.5689 54.7641 24.4888 54.9067 24.3461C55.0494 24.2035 55.1295 24.01 55.1295 23.8082C55.1295 23.6065 55.0494 23.413 54.9067 23.2703L49.9241 18.2877C49.7814 18.145 49.5879 18.0649 49.3862 18.0649C49.1844 18.0649 48.9909 18.145 48.8483 18.2877L43.8657 23.2703C43.723 23.413 43.6429 23.6065 43.6429 23.8082C43.6429 24.01 43.723 24.2035 43.8657 24.3461C44.0083 24.4888 44.2018 24.5689 44.4036 24.5689C44.6053 24.5689 44.7988 24.4888 44.9415 24.3461L48.6258 20.6618L48.6258 37.7603C48.6258 37.9107 48.6705 38.0578 48.754 38.1828C48.8376 38.3079 48.9564 38.4054 49.0954 38.463C49.2344 38.5205 49.3873 38.5356 49.5348 38.5063C49.6824 38.477 49.8179 38.4045 49.9243 38.2982C50.0669 38.1555 50.147 37.962 50.147 37.7603L50.147 20.6622L53.8309 24.3461C53.9736 24.4888 54.1671 24.5689 54.3688 24.5689Z" fill="#CB8734"/>
<path d="M49.3862 18.0649L49.3862 17.9649L49.3862 17.9649L49.3862 18.0649ZM43.6429 23.8082L43.5429 23.8082L43.6429 23.8082ZM44.4036 24.5689V24.4689V24.5689ZM48.6258 20.6618L48.7258 20.6618L48.7258 20.4204L48.5551 20.5911L48.6258 20.6618ZM48.6258 37.7603L48.5258 37.7603L48.5258 37.7603L48.6258 37.7603ZM48.754 38.1828L48.6709 38.2384L48.6709 38.2384L48.754 38.1828ZM49.0954 38.463L49.0571 38.5554L49.0571 38.5554L49.0954 38.463ZM49.5348 38.5063L49.5543 38.6044L49.5348 38.5063ZM49.9243 38.2982L49.995 38.3689L49.995 38.3689L49.9243 38.2982ZM50.147 37.7603L50.047 37.7603L50.047 37.7603L50.147 37.7603ZM50.147 20.6622L50.2177 20.5915L50.047 20.4208L50.047 20.6622L50.147 20.6622ZM54.836 24.2754C54.7121 24.3993 54.544 24.4689 54.3688 24.4689V24.6689C54.5971 24.6689 54.816 24.5783 54.9774 24.4168L54.836 24.2754ZM55.0295 23.8082C55.0295 23.9835 54.9599 24.1515 54.836 24.2754L54.9774 24.4168C55.1388 24.2554 55.2295 24.0365 55.2295 23.8082H55.0295ZM54.836 23.341C54.9599 23.4649 55.0295 23.633 55.0295 23.8082H55.2295C55.2295 23.58 55.1388 23.361 54.9774 23.1996L54.836 23.341ZM49.8534 18.3584L54.836 23.341L54.9774 23.1996L49.9948 18.217L49.8534 18.3584ZM49.3862 18.1649C49.5614 18.1649 49.7295 18.2345 49.8534 18.3584L49.9948 18.217C49.8334 18.0556 49.6145 17.9649 49.3862 17.9649L49.3862 18.1649ZM48.919 18.3584C49.0429 18.2345 49.211 18.1649 49.3862 18.1649L49.3862 17.9649C49.1579 17.9649 48.939 18.0556 48.7776 18.217L48.919 18.3584ZM43.9364 23.341L48.919 18.3584L48.7776 18.217L43.7949 23.1996L43.9364 23.341ZM43.7429 23.8082C43.7429 23.633 43.8125 23.4649 43.9364 23.341L43.7949 23.1996C43.6335 23.361 43.5429 23.58 43.5429 23.8082L43.7429 23.8082ZM43.9364 24.2754C43.8125 24.1515 43.7429 23.9835 43.7429 23.8082L43.5429 23.8082C43.5429 24.0365 43.6335 24.2554 43.7949 24.4169L43.9364 24.2754ZM44.4036 24.4689C44.2283 24.4689 44.0603 24.3993 43.9364 24.2754L43.7949 24.4169C43.9564 24.5783 44.1753 24.6689 44.4036 24.6689V24.4689ZM44.8708 24.2754C44.7469 24.3993 44.5788 24.4689 44.4036 24.4689V24.6689C44.6318 24.6689 44.8508 24.5783 45.0122 24.4169L44.8708 24.2754ZM48.5551 20.5911L44.8708 24.2754L45.0122 24.4169L48.6965 20.7325L48.5551 20.5911ZM48.7258 37.7603L48.7258 20.6618L48.5258 20.6618L48.5258 37.7603L48.7258 37.7603ZM48.8372 38.1273C48.7646 38.0186 48.7258 37.8909 48.7258 37.7603L48.5258 37.7603C48.5258 37.9305 48.5763 38.0969 48.6709 38.2384L48.8372 38.1273ZM49.1337 38.3706C49.0129 38.3206 48.9098 38.2359 48.8372 38.1273L48.6709 38.2384C48.7655 38.3799 48.8999 38.4902 49.0571 38.5554L49.1337 38.3706ZM49.5153 38.4082C49.3872 38.4337 49.2544 38.4206 49.1337 38.3706L49.0571 38.5554C49.2144 38.6205 49.3874 38.6376 49.5543 38.6044L49.5153 38.4082ZM49.8536 38.2275C49.7612 38.3198 49.6435 38.3827 49.5153 38.4082L49.5543 38.6044C49.7213 38.5712 49.8746 38.4892 49.995 38.3689L49.8536 38.2275ZM50.047 37.7603C50.047 37.9355 49.9775 38.1036 49.8536 38.2275L49.995 38.3689C50.1564 38.2074 50.247 37.9885 50.247 37.7603L50.047 37.7603ZM50.047 20.6622L50.047 37.7603L50.247 37.7603L50.247 20.6622L50.047 20.6622ZM53.9016 24.2754L50.2177 20.5915L50.0763 20.7329L53.7602 24.4169L53.9016 24.2754ZM54.3688 24.4689C54.1936 24.4689 54.0255 24.3993 53.9016 24.2754L53.7602 24.4169C53.9216 24.5783 54.1405 24.6689 54.3688 24.6689V24.4689Z" fill="#CB8734" mask="url(#path-5-outside-1_162_2882)"/>
<mask id="path-7-outside-2_162_2882" maskUnits="userSpaceOnUse" x="16.777" y="36.3045" width="24.0416" height="24.0416" fill="black">
<rect fill="white" x="16.777" y="36.3045" width="24.0416" height="24.0416"/>
<path fill-rule="evenodd" clip-rule="evenodd" d="M18.5912 48.4034C18.6205 48.5509 18.6929 48.6865 18.7993 48.7929C18.8025 48.7961 18.8057 48.7993 18.809 48.8024L23.7821 53.7755C23.9248 53.9182 24.1183 53.9984 24.32 53.9984C24.5218 53.9984 24.7153 53.9182 24.8579 53.7755C25.0006 53.6329 25.0807 53.4394 25.0807 53.2376C25.0807 53.0359 25.0006 52.8424 24.8579 52.6997L21.1738 49.0156L38.2715 49.0156C38.4709 49.0121 38.661 48.9304 38.8008 48.7882C38.9406 48.6459 39.019 48.4544 39.019 48.255C39.019 48.0555 38.9406 47.864 38.8008 47.7218C38.661 47.5795 38.4709 47.4978 38.2715 47.4944L21.1739 47.4944L24.8579 43.8103C24.9286 43.7397 24.9846 43.6558 25.0228 43.5635C25.0611 43.4712 25.0807 43.3723 25.0807 43.2724C25.0807 43.1725 25.0611 43.0736 25.0228 42.9813C24.9846 42.889 24.9286 42.8051 24.8579 42.7345C24.7873 42.6638 24.7034 42.6078 24.6111 42.5696C24.5188 42.5314 24.4199 42.5117 24.32 42.5117C24.2201 42.5117 24.1212 42.5314 24.0289 42.5696C23.9366 42.6078 23.8528 42.6638 23.7821 42.7345L18.8042 47.7124"/>
</mask>
<path fill-rule="evenodd" clip-rule="evenodd" d="M18.5912 48.4034C18.6205 48.5509 18.6929 48.6865 18.7993 48.7929C18.8025 48.7961 18.8057 48.7993 18.809 48.8024L23.7821 53.7755C23.9248 53.9182 24.1183 53.9984 24.32 53.9984C24.5218 53.9984 24.7153 53.9182 24.8579 53.7755C25.0006 53.6329 25.0807 53.4394 25.0807 53.2376C25.0807 53.0359 25.0006 52.8424 24.8579 52.6997L21.1738 49.0156L38.2715 49.0156C38.4709 49.0121 38.661 48.9304 38.8008 48.7882C38.9406 48.6459 39.019 48.4544 39.019 48.255C39.019 48.0555 38.9406 47.864 38.8008 47.7218C38.661 47.5795 38.4709 47.4978 38.2715 47.4944L21.1739 47.4944L24.8579 43.8103C24.9286 43.7397 24.9846 43.6558 25.0228 43.5635C25.0611 43.4712 25.0807 43.3723 25.0807 43.2724C25.0807 43.1725 25.0611 43.0736 25.0228 42.9813C24.9846 42.889 24.9286 42.8051 24.8579 42.7345C24.7873 42.6638 24.7034 42.6078 24.6111 42.5696C24.5188 42.5314 24.4199 42.5117 24.32 42.5117C24.2201 42.5117 24.1212 42.5314 24.0289 42.5696C23.9366 42.6078 23.8528 42.6638 23.7821 42.7345L18.8042 47.7124" fill="#CB8734"/>
<path d="M18.7564 47.6977L18.5434 48.3887L18.639 48.4181L18.8519 47.7272L18.7564 47.6977ZM18.7993 48.7929L18.7285 48.8636L18.7286 48.8636L18.7993 48.7929ZM18.809 48.8024L18.8797 48.7317L18.8784 48.7304L18.809 48.8024ZM23.7821 53.7755L23.8528 53.7048L23.7821 53.7755ZM21.1738 49.0156L21.1738 48.9156L20.9323 48.9156L21.1031 49.0863L21.1738 49.0156ZM38.2715 49.0156L38.2715 49.1156L38.2732 49.1155L38.2715 49.0156ZM38.8008 48.7882L38.7295 48.7181L38.7295 48.7181L38.8008 48.7882ZM39.019 48.255L39.119 48.255L39.019 48.255ZM38.8008 47.7218L38.8721 47.6517L38.8008 47.7218ZM38.2715 47.4944L38.2732 47.3944L38.2715 47.3944L38.2715 47.4944ZM21.1739 47.4944L21.1031 47.4237L20.9324 47.5944L21.1739 47.5944L21.1739 47.4944ZM25.0807 43.2724L25.1807 43.2724L25.1807 43.2724H25.0807ZM24.6111 42.5696L24.6494 42.4772L24.6111 42.5696ZM24.32 42.5117L24.32 42.4117L24.32 42.4117L24.32 42.5117ZM24.0289 42.5696L23.9906 42.4772L24.0289 42.5696ZM23.7821 42.7345L23.8528 42.8052L23.7821 42.7345ZM18.87 48.7222C18.7776 48.6298 18.7147 48.512 18.6893 48.3839L18.4931 48.4229C18.5263 48.5898 18.6082 48.7432 18.7285 48.8636L18.87 48.7222ZM18.8784 48.7304C18.8756 48.7277 18.8728 48.7249 18.87 48.7222L18.7286 48.8636C18.7322 48.8672 18.7359 48.8708 18.7396 48.8744L18.8784 48.7304ZM23.8528 53.7048L18.8797 48.7317L18.7383 48.8731L23.7114 53.8463L23.8528 53.7048ZM24.32 53.8984C24.1448 53.8984 23.9767 53.8287 23.8528 53.7048L23.7114 53.8463C23.8728 54.0077 24.0918 54.0984 24.32 54.0984L24.32 53.8984ZM24.7872 53.7048C24.6633 53.8287 24.4953 53.8984 24.32 53.8984L24.32 54.0984C24.5483 54.0984 24.7672 54.0077 24.9286 53.8463L24.7872 53.7048ZM24.9807 53.2376C24.9807 53.4129 24.9111 53.5809 24.7872 53.7048L24.9286 53.8463C25.0901 53.6848 25.1807 53.4659 25.1807 53.2376L24.9807 53.2376ZM24.7872 52.7704C24.9111 52.8944 24.9807 53.0624 24.9807 53.2376L25.1807 53.2376C25.1807 53.0094 25.0901 52.7904 24.9286 52.629L24.7872 52.7704ZM21.1031 49.0863L24.7872 52.7704L24.9286 52.629L21.2445 48.9449L21.1031 49.0863ZM38.2715 48.9156L21.1738 48.9156L21.1738 49.1156L38.2715 49.1156V48.9156ZM38.7295 48.7181C38.6081 48.8416 38.443 48.9126 38.2697 48.9156L38.2732 49.1155C38.4989 49.1116 38.7139 49.0192 38.8721 48.8583L38.7295 48.7181ZM38.919 48.255C38.919 48.4282 38.8509 48.5945 38.7295 48.7181L38.8721 48.8583C39.0303 48.6973 39.119 48.4807 39.119 48.255L38.919 48.255ZM38.7295 47.7918C38.8509 47.9154 38.919 48.0817 38.919 48.255L39.119 48.255C39.119 48.0293 39.0303 47.8126 38.8721 47.6517L38.7295 47.7918ZM38.2697 47.5944C38.443 47.5974 38.6081 47.6683 38.7295 47.7918L38.8721 47.6517C38.7139 47.4907 38.4989 47.3983 38.2732 47.3944L38.2697 47.5944ZM21.1739 47.5944L38.2715 47.5944L38.2715 47.3944L21.1739 47.3944L21.1739 47.5944ZM24.7872 43.7396L21.1031 47.4237L21.2446 47.5651L24.9286 43.881L24.7872 43.7396ZM24.9304 43.5252C24.8972 43.6054 24.8486 43.6782 24.7872 43.7396L24.9286 43.881C25.0086 43.8011 25.072 43.7062 25.1152 43.6018L24.9304 43.5252ZM24.9807 43.2724C24.9807 43.3592 24.9637 43.4451 24.9304 43.5252L25.1152 43.6018C25.1585 43.4973 25.1807 43.3854 25.1807 43.2724L24.9807 43.2724ZM24.9304 43.0195C24.9637 43.0997 24.9807 43.1856 24.9807 43.2724H25.1807C25.1807 43.1594 25.1585 43.0474 25.1152 42.943L24.9304 43.0195ZM24.7872 42.8052C24.8486 42.8665 24.8972 42.9394 24.9304 43.0195L25.1152 42.943C25.072 42.8386 25.0086 42.7437 24.9286 42.6638L24.7872 42.8052ZM24.5729 42.662C24.653 42.6952 24.7259 42.7438 24.7872 42.8052L24.9286 42.6638C24.8487 42.5838 24.7538 42.5204 24.6494 42.4772L24.5729 42.662ZM24.32 42.6117C24.4068 42.6117 24.4927 42.6288 24.5729 42.662L24.6494 42.4772C24.545 42.4339 24.4331 42.4117 24.32 42.4117L24.32 42.6117ZM24.0672 42.662C24.1473 42.6288 24.2333 42.6117 24.32 42.6117L24.32 42.4117C24.207 42.4117 24.0951 42.4339 23.9906 42.4772L24.0672 42.662ZM23.8528 42.8052C23.9142 42.7438 23.987 42.6952 24.0672 42.662L23.9906 42.4772C23.8862 42.5204 23.7913 42.5838 23.7114 42.6638L23.8528 42.8052ZM18.8749 47.7832L23.8528 42.8052L23.7114 42.6638L18.7334 47.6417L18.8749 47.7832Z" fill="#CB8734" mask="url(#path-7-outside-2_162_2882)"/>
</svg>
