<svg width="71" height="71" viewBox="0 0 71 71" fill="none" xmlns="http://www.w3.org/2000/svg">
<rect width="71" height="71" fill="white"/>
<path d="M61.9165 40.2116C62.0685 40.3636 62.2747 40.449 62.4897 40.449C62.7047 40.449 62.9109 40.3636 63.063 40.2116C63.215 40.0595 63.3004 39.8533 63.3004 39.6383V37.379C63.3004 37.164 63.215 36.9578 63.063 36.8057C62.9109 36.6537 62.7047 36.5683 62.4897 36.5683C62.2747 36.5683 62.0685 36.6537 61.9165 36.8057C61.7644 36.9578 61.679 37.164 61.679 37.379V39.6383C61.679 39.8533 61.7644 40.0595 61.9165 40.2116Z" fill="#CB8734" stroke="#CB8734" stroke-width="0.1"/>
<path d="M13.0429 62.175H60.2071C61.0274 62.175 61.8141 61.8491 62.3941 61.2691C62.9741 60.6891 63.3 59.9024 63.3 59.0821V44.9633C63.3 44.7483 63.2146 44.5421 63.0625 44.39C62.9105 44.238 62.7043 44.1526 62.4893 44.1526C62.2743 44.1526 62.0681 44.238 61.916 44.39C61.764 44.5421 61.6786 44.7483 61.6786 44.9633V59.0821C61.6786 59.4724 61.5235 59.8467 61.2476 60.1226C60.9717 60.3985 60.5974 60.5536 60.2071 60.5536H13.0429C12.6526 60.5536 12.2783 60.3985 12.0024 60.1226C11.7265 59.8467 11.5714 59.4724 11.5714 59.0821V11.9179C11.5714 11.5276 11.7265 11.1533 12.0024 10.8774C12.2783 10.6015 12.6526 10.4464 13.0429 10.4464H60.2071C60.5974 10.4464 60.9717 10.6015 61.2476 10.8774C61.5235 11.1533 61.6786 11.5276 61.6786 11.9179V24.5153C61.6786 24.7303 61.764 24.9365 61.916 25.0885C62.0681 25.2406 62.2743 25.326 62.4893 25.326C62.7043 25.326 62.9105 25.2406 63.0625 25.0885C63.2146 24.9365 63.3 24.7303 63.3 24.5153V11.9179C63.3 11.0976 62.9741 10.3109 62.3941 9.73088C61.8141 9.15085 61.0274 8.825 60.2071 8.825H13.0429C12.2226 8.825 11.4359 9.15085 10.8559 9.73088C10.2759 10.3109 9.95 11.0976 9.95 11.9179V59.0821C9.95 59.9024 10.2759 60.6891 10.8559 61.2691C11.4359 61.8491 12.2226 62.175 13.0429 62.175Z" fill="#CB8734" stroke="#CB8734" stroke-width="0.1"/>
<path d="M61.9165 32.6274C62.0685 32.7794 62.2747 32.8648 62.4897 32.8648C62.7047 32.8648 62.9109 32.7794 63.063 32.6274C63.215 32.4753 63.3004 32.2691 63.3004 32.0541V29.8404C63.3004 29.6254 63.215 29.4192 63.063 29.2672C62.9109 29.1151 62.7047 29.0297 62.4897 29.0297C62.2747 29.0297 62.0685 29.1151 61.9165 29.2672C61.7644 29.4192 61.679 29.6254 61.679 29.8404V32.0541C61.679 32.2691 61.7644 32.4753 61.9165 32.6274Z" fill="#CB8734" stroke="#CB8734" stroke-width="0.1"/>
<mask id="path-5-outside-1_162_2898" maskUnits="userSpaceOnUse" x="37.429" y="23.5222" width="24.0416" height="24.0416" fill="black">
<rect fill="white" x="37.429" y="23.5222" width="24.0416" height="24.0416"/>
<path fill-rule="evenodd" clip-rule="evenodd" d="M54.3688 31.8192C54.5706 31.8192 54.7641 31.739 54.9067 31.5964C55.0494 31.4537 55.1295 31.2602 55.1295 31.0585C55.1295 30.8567 55.0494 30.6632 54.9067 30.5206L49.9241 25.5379C49.7814 25.3953 49.5879 25.3151 49.3862 25.3151C49.1844 25.3151 48.9909 25.3953 48.8483 25.5379L43.8657 30.5206C43.723 30.6632 43.6429 30.8567 43.6429 31.0585C43.6429 31.2602 43.723 31.4537 43.8657 31.5964C44.0083 31.739 44.2018 31.8192 44.4036 31.8192C44.6053 31.8192 44.7988 31.739 44.9415 31.5964L48.6258 27.9121L48.6258 45.0105C48.6258 45.161 48.6705 45.308 48.754 45.4331C48.8376 45.5582 48.9564 45.6556 49.0954 45.7132C49.2344 45.7708 49.3873 45.7859 49.5348 45.7565C49.6824 45.7272 49.8179 45.6548 49.9243 45.5484C50.0669 45.4058 50.147 45.2123 50.147 45.0105L50.147 27.9125L53.8309 31.5964C53.9736 31.739 54.1671 31.8192 54.3688 31.8192Z"/>
</mask>
<path fill-rule="evenodd" clip-rule="evenodd" d="M54.3688 31.8192C54.5706 31.8192 54.7641 31.739 54.9067 31.5964C55.0494 31.4537 55.1295 31.2602 55.1295 31.0585C55.1295 30.8567 55.0494 30.6632 54.9067 30.5206L49.9241 25.5379C49.7814 25.3953 49.5879 25.3151 49.3862 25.3151C49.1844 25.3151 48.9909 25.3953 48.8483 25.5379L43.8657 30.5206C43.723 30.6632 43.6429 30.8567 43.6429 31.0585C43.6429 31.2602 43.723 31.4537 43.8657 31.5964C44.0083 31.739 44.2018 31.8192 44.4036 31.8192C44.6053 31.8192 44.7988 31.739 44.9415 31.5964L48.6258 27.9121L48.6258 45.0105C48.6258 45.161 48.6705 45.308 48.754 45.4331C48.8376 45.5582 48.9564 45.6556 49.0954 45.7132C49.2344 45.7708 49.3873 45.7859 49.5348 45.7565C49.6824 45.7272 49.8179 45.6548 49.9243 45.5484C50.0669 45.4058 50.147 45.2123 50.147 45.0105L50.147 27.9125L53.8309 31.5964C53.9736 31.739 54.1671 31.8192 54.3688 31.8192Z" fill="#CB8734"/>
<path d="M54.9067 30.5206L54.9774 30.4499L54.9067 30.5206ZM49.9241 25.5379L49.8534 25.6087L49.9241 25.5379ZM49.3862 25.3151L49.3862 25.2151L49.3862 25.2151L49.3862 25.3151ZM43.6429 31.0585L43.5429 31.0585L43.6429 31.0585ZM44.4036 31.8192V31.7192V31.8192ZM48.6258 27.9121L48.7258 27.912L48.7258 27.6706L48.5551 27.8413L48.6258 27.9121ZM48.6258 45.0105L48.5258 45.0105L48.5258 45.0105L48.6258 45.0105ZM48.754 45.4331L48.6709 45.4886L48.6709 45.4886L48.754 45.4331ZM49.0954 45.7132L49.0571 45.8056L49.0571 45.8056L49.0954 45.7132ZM49.5348 45.7565L49.5543 45.8546L49.5348 45.7565ZM49.9243 45.5484L49.995 45.6192L49.995 45.6191L49.9243 45.5484ZM50.147 45.0105L50.047 45.0105L50.047 45.0105L50.147 45.0105ZM50.147 27.9125L50.2177 27.8418L50.047 27.6711L50.047 27.9125L50.147 27.9125ZM54.836 31.5257C54.7121 31.6496 54.544 31.7192 54.3688 31.7192V31.9192C54.5971 31.9192 54.816 31.8285 54.9774 31.6671L54.836 31.5257ZM55.0295 31.0585C55.0295 31.2337 54.9599 31.4018 54.836 31.5257L54.9774 31.6671C55.1388 31.5057 55.2295 31.2868 55.2295 31.0585H55.0295ZM54.836 30.5913C54.9599 30.7152 55.0295 30.8832 55.0295 31.0585H55.2295C55.2295 30.8302 55.1388 30.6113 54.9774 30.4499L54.836 30.5913ZM49.8534 25.6087L54.836 30.5913L54.9774 30.4499L49.9948 25.4672L49.8534 25.6087ZM49.3862 25.4151C49.5614 25.4151 49.7295 25.4847 49.8534 25.6087L49.9948 25.4672C49.8334 25.3058 49.6145 25.2151 49.3862 25.2151L49.3862 25.4151ZM48.919 25.6087C49.0429 25.4847 49.211 25.4151 49.3862 25.4151L49.3862 25.2151C49.1579 25.2151 48.939 25.3058 48.7776 25.4672L48.919 25.6087ZM43.9364 30.5913L48.919 25.6087L48.7776 25.4672L43.7949 30.4499L43.9364 30.5913ZM43.7429 31.0585C43.7429 30.8832 43.8125 30.7152 43.9364 30.5913L43.7949 30.4499C43.6335 30.6113 43.5429 30.8302 43.5429 31.0585L43.7429 31.0585ZM43.9364 31.5257C43.8125 31.4018 43.7429 31.2337 43.7429 31.0585L43.5429 31.0585C43.5429 31.2868 43.6335 31.5057 43.7949 31.6671L43.9364 31.5257ZM44.4036 31.7192C44.2283 31.7192 44.0603 31.6496 43.9364 31.5257L43.7949 31.6671C43.9564 31.8285 44.1753 31.9192 44.4036 31.9192V31.7192ZM44.8708 31.5257C44.7469 31.6496 44.5788 31.7192 44.4036 31.7192V31.9192C44.6318 31.9192 44.8508 31.8285 45.0122 31.6671L44.8708 31.5257ZM48.5551 27.8413L44.8708 31.5257L45.0122 31.6671L48.6965 27.9828L48.5551 27.8413ZM48.7258 45.0105L48.7258 27.912L48.5258 27.9121L48.5258 45.0105L48.7258 45.0105ZM48.8372 45.3775C48.7646 45.2689 48.7258 45.1412 48.7258 45.0105L48.5258 45.0105C48.5258 45.1808 48.5763 45.3471 48.6709 45.4886L48.8372 45.3775ZM49.1337 45.6208C49.0129 45.5708 48.9098 45.4862 48.8372 45.3775L48.6709 45.4886C48.7655 45.6302 48.8999 45.7405 49.0571 45.8056L49.1337 45.6208ZM49.5153 45.6584C49.3872 45.6839 49.2544 45.6708 49.1337 45.6208L49.0571 45.8056C49.2144 45.8707 49.3874 45.8878 49.5543 45.8546L49.5153 45.6584ZM49.8536 45.4777C49.7612 45.5701 49.6435 45.633 49.5153 45.6584L49.5543 45.8546C49.7213 45.8214 49.8746 45.7395 49.995 45.6192L49.8536 45.4777ZM50.047 45.0105C50.047 45.1858 49.9775 45.3538 49.8536 45.4777L49.995 45.6191C50.1564 45.4577 50.247 45.2388 50.247 45.0105L50.047 45.0105ZM50.047 27.9125L50.047 45.0105L50.247 45.0105L50.247 27.9125L50.047 27.9125ZM53.9016 31.5257L50.2177 27.8418L50.0763 27.9832L53.7602 31.6671L53.9016 31.5257ZM54.3688 31.7192C54.1936 31.7192 54.0255 31.6496 53.9016 31.5257L53.7602 31.6671C53.9216 31.8285 54.1405 31.9192 54.3688 31.9192V31.7192Z" fill="#CB8734" mask="url(#path-5-outside-1_162_2898)"/>
</svg>
